<svg xmlns="http://www.w3.org/2000/svg" xmlns:xlink="http://www.w3.org/1999/xlink" width="500" zoomAndPan="magnify" viewBox="0 0 375 374.999991" height="500" preserveAspectRatio="xMidYMid meet" version="1.0"><path fill="#339c57" d="M 134.433594 239.460938 L 135.457031 239.460938 C 137.359375 239.460938 138.902344 237.902344 138.902344 236 C 138.902344 234.078125 137.359375 232.539062 135.457031 232.539062 L 134.433594 232.539062 C 132.53125 232.539062 130.988281 234.097656 130.988281 236 C 130.972656 237.902344 132.515625 239.460938 134.433594 239.460938 Z M 200.90625 287.019531 C 190.867188 286.578125 173.632812 286.796875 165.152344 287.035156 C 159.40625 287.191406 154.90625 291.785156 154.90625 297.515625 C 154.90625 303.007812 159.171875 307.367188 165.042969 307.882812 C 168.203125 308.152344 174.40625 308.277344 180.9375 308.277344 C 188.695312 308.277344 196.925781 308.121094 201.046875 307.882812 C 207.46875 307.523438 211.292969 303.652344 211.292969 297.53125 C 211.292969 292.636719 207.65625 287.300781 200.90625 287.019531 Z M 200.652344 300.945312 C 193.257812 301.371094 172.089844 301.527344 165.625 300.960938 C 163.78125 300.804688 161.800781 299.65625 161.800781 297.5 C 161.800781 295.53125 163.3125 294.003906 165.339844 293.957031 C 170.21875 293.816406 177.992188 293.691406 185.59375 293.691406 C 191.085938 293.691406 196.484375 293.753906 200.621094 293.941406 C 204.289062 294.097656 204.398438 297.46875 204.398438 297.5 C 204.382812 299.542969 203.785156 300.757812 200.652344 300.945312 Z M 134.230469 250.980469 L 135.757812 250.980469 C 137.660156 250.980469 139.203125 249.421875 139.203125 247.519531 C 139.203125 245.597656 137.660156 244.058594 135.757812 244.058594 L 134.230469 244.058594 C 132.324219 244.058594 130.78125 245.613281 130.78125 247.519531 C 130.78125 249.421875 132.324219 250.980469 134.230469 250.980469 Z M 136.195312 256.046875 L 133.851562 256.046875 C 131.949219 256.046875 130.40625 257.605469 130.40625 259.511719 C 130.40625 261.429688 131.949219 262.972656 133.851562 262.972656 L 136.195312 262.972656 C 138.101562 262.972656 139.644531 261.414062 139.644531 259.511719 C 139.644531 257.589844 138.101562 256.046875 136.195312 256.046875 Z M 114.324219 181.613281 C 114.746094 181.613281 115.1875 181.535156 115.582031 181.378906 C 122.003906 178.84375 130.816406 172.675781 135.015625 165.105469 C 139.925781 156.230469 138.320312 149.890625 136.921875 146.898438 C 135.171875 143.167969 131.867188 140.429688 128.3125 139.753906 C 121.339844 138.449219 116.761719 140.667969 113.804688 143.71875 C 108.941406 139.125 102.597656 138.386719 96.429688 141.941406 C 91.363281 144.871094 85.585938 153.808594 91.695312 165.28125 C 95.863281 173.132812 107.117188 179.347656 113.222656 181.425781 C 113.582031 181.550781 113.960938 181.613281 114.324219 181.613281 Z M 97.785156 162.023438 C 92.699219 152.453125 99.796875 148 99.875 147.953125 C 101.433594 147.054688 102.898438 146.601562 104.28125 146.601562 C 106.816406 146.601562 109.066406 148.140625 111.082031 151.226562 C 111.742188 152.25 112.890625 152.847656 114.101562 152.800781 C 115.3125 152.753906 116.414062 152.078125 116.996094 151.007812 C 119.152344 147.039062 122.253906 145.671875 127.039062 146.585938 C 128.1875 146.804688 129.746094 147.890625 130.65625 149.859375 C 132.105469 152.957031 131.507812 157.175781 128.972656 161.753906 C 126.015625 167.089844 119.421875 172.078125 114.226562 174.4375 C 108.65625 172.21875 100.488281 167.089844 97.785156 162.023438 Z M 281.980469 140.320312 C 276.820312 137.363281 271.136719 135.316406 265.269531 134.121094 C 265.191406 124.472656 265.046875 106.296875 264.71875 92.027344 C 264.433594 80.175781 256.566406 72.324219 244.667969 72.007812 C 191.386719 70.5625 165.261719 70.984375 115.800781 72.007812 C 105.714844 72.214844 98.601562 79.84375 98.097656 90.988281 C 97.832031 97.109375 97.578125 103.609375 97.34375 110.296875 C 94.449219 111.273438 91.628906 112.5 88.988281 114.007812 C 73.863281 122.664062 65.773438 138.402344 66.183594 158.292969 C 66.546875 175.289062 73.785156 189.292969 86.59375 197.695312 C 89.410156 199.554688 92.433594 201.050781 95.582031 202.261719 C 95.34375 246.054688 95.957031 286.4375 97.359375 319.199219 C 97.703125 327.382812 105.621094 342.914062 117.484375 343.734375 C 129.964844 344.597656 149.714844 344.882812 169.683594 344.882812 C 200.8125 344.882812 232.457031 344.21875 237.917969 344.09375 C 242.9375 343.984375 248.570312 340.742188 253.371094 335.1875 C 257.792969 330.105469 260.625 324.09375 260.972656 319.136719 C 262.578125 295.957031 263.363281 271.972656 263.363281 245.992188 C 270.980469 244.71875 278.3125 241.964844 284.75 237.730469 C 299.636719 227.957031 308.054688 211.671875 308.464844 191.875 C 308.984375 168.710938 299.558594 150.394531 281.980469 140.320312 Z M 108.453125 91.425781 C 108.578125 88.753906 109.539062 82.519531 116.007812 82.378906 C 165.292969 81.355469 191.320312 80.929688 244.371094 82.378906 C 252.425781 82.597656 254.238281 87.871094 254.332031 92.246094 C 254.644531 105.828125 254.804688 123.011719 254.867188 132.894531 C 252.082031 132.816406 249.28125 132.925781 246.511719 133.207031 C 246.445312 123.4375 246.164062 114.78125 245.878906 106.378906 L 245.753906 102.835938 C 245.566406 96.984375 241.222656 92.339844 235.667969 92.042969 C 190.394531 89.632812 160.414062 90.246094 126.753906 92.042969 C 121.214844 92.339844 116.886719 96.96875 116.667969 102.820312 C 116.605469 104.410156 116.558594 106.03125 116.496094 107.667969 C 113.582031 107.527344 110.671875 107.605469 107.792969 107.933594 C 107.996094 102.253906 108.21875 96.699219 108.453125 91.425781 Z M 196.183594 192.332031 C 196.65625 200.96875 198.464844 207.453125 203.078125 217.132812 C 203.582031 218.1875 203.816406 219.710938 202.933594 220.8125 C 201.628906 222.464844 200.148438 224.230469 198.671875 225.976562 C 195.523438 229.707031 192.566406 233.230469 190.851562 236.125 C 187.8125 241.257812 188.175781 246.90625 191.792969 250.839844 C 194.21875 253.484375 197.742188 254.898438 201.28125 254.898438 C 203.203125 254.898438 205.136719 254.492188 206.902344 253.625 C 211.085938 251.578125 214.972656 249.46875 218.71875 247.425781 C 222.023438 245.628906 225.140625 243.929688 228.082031 242.5 C 229.011719 242.042969 230.097656 242.027344 231.074219 242.421875 C 233.386719 243.378906 235.761719 244.167969 238.167969 244.8125 C 238.074219 250.746094 237.886719 257.527344 237.523438 262.515625 C 237.003906 269.628906 235.574219 271.5 230.523438 271.597656 C 218.75 271.832031 158.558594 272.933594 130.296875 271.597656 C 125.308594 271.359375 123.246094 270.621094 122.992188 264.121094 C 122.347656 247.0625 122.003906 227.09375 121.9375 204.777344 C 125.605469 204.148438 129.226562 203.140625 132.703125 201.710938 C 133.316406 201.457031 133.992188 201.472656 134.574219 201.757812 C 136.90625 202.90625 139.3125 204.480469 141.863281 206.148438 C 144.820312 208.082031 147.890625 210.097656 151.351562 211.796875 C 153.285156 212.742188 155.316406 213.199219 157.285156 213.199219 C 160.808594 213.199219 164.128906 211.734375 166.332031 208.980469 C 169.730469 204.730469 169.496094 198.925781 165.71875 194.171875 C 164.742188 192.945312 163.546875 191.292969 162.289062 189.5625 C 160.652344 187.3125 158.792969 184.746094 156.8125 182.226562 C 156.308594 181.597656 156.464844 180.636719 156.796875 179.976562 C 160.746094 171.699219 162.289062 166.128906 162.695312 158.71875 C 163.71875 140.195312 155.898438 124.347656 141.214844 115.238281 C 135.789062 111.871094 129.699219 109.636719 123.402344 108.5 C 123.464844 106.675781 123.527344 104.882812 123.589844 103.136719 C 123.671875 100.855469 125.164062 99.121094 127.148438 99.011719 C 160.589844 97.234375 190.363281 96.605469 235.335938 99.011719 C 237.320312 99.121094 238.816406 100.839844 238.894531 103.121094 L 239.019531 106.660156 C 239.320312 115.300781 239.617188 124.222656 239.664062 134.339844 C 233.148438 135.773438 226.871094 138.242188 221.207031 141.753906 C 204.085938 152.328125 194.988281 170.773438 196.183594 192.332031 Z M 92.261719 188.996094 C 85.289062 184.414062 76.902344 175.335938 76.539062 158.070312 C 76.207031 142.164062 82.457031 129.714844 94.132812 123.027344 C 106.546875 115.898438 123.277344 116.324219 135.757812 124.066406 C 147.273438 131.210938 153.175781 143.3125 152.34375 158.121094 C 152.011719 164.097656 150.769531 168.472656 147.433594 175.476562 C 145.292969 179.960938 145.78125 185.011719 148.691406 188.679688 C 150.546875 191.023438 152.328125 193.480469 153.898438 195.652344 C 155.222656 197.476562 156.480469 199.222656 157.597656 200.625 C 158.210938 201.394531 158.480469 202.152344 158.226562 202.449219 C 157.960938 202.78125 157.125 203.03125 155.882812 202.417969 C 153.003906 201 150.21875 199.175781 147.527344 197.414062 C 144.820312 195.636719 142.035156 193.808594 139.109375 192.378906 C 137.375 191.527344 135.488281 191.101562 133.601562 191.101562 C 131.964844 191.101562 130.3125 191.417969 128.753906 192.0625 C 116.714844 197.050781 102.742188 195.871094 92.261719 188.996094 Z M 237.699219 333.691406 C 197.523438 334.574219 142.113281 335.03125 118.210938 333.363281 C 114.875 333.125 111.238281 328.5625 109.238281 324.15625 C 111.441406 324.863281 113.867188 325.164062 116.335938 325.304688 C 130.152344 326.027344 150.628906 326.3125 172.011719 326.3125 C 198.75 326.3125 226.871094 325.855469 245.09375 325.242188 C 246.210938 325.210938 247.203125 325.070312 248.164062 324.894531 C 245.328125 329.398438 240.75 333.628906 237.699219 333.691406 Z M 250.835938 315.546875 C 249.703125 317.359375 247.878906 318.191406 244.84375 318.300781 C 212.15625 319.417969 147.605469 319.984375 116.683594 318.367188 C 111.726562 318.113281 108.910156 317.28125 107.523438 314.195312 C 106.296875 283.097656 105.746094 245.566406 105.917969 204.96875 C 108.925781 205.40625 111.976562 205.582031 115.015625 205.488281 C 115.078125 227.597656 115.441406 247.425781 116.070312 264.371094 C 116.511719 276.269531 123.339844 278.207031 129.933594 278.503906 C 140.320312 278.992188 154.921875 279.164062 169.871094 279.164062 C 195.964844 279.164062 223.109375 278.660156 230.632812 278.519531 C 243.285156 278.269531 244.054688 267.566406 244.386719 263.003906 C 244.730469 258.234375 244.921875 251.925781 245.03125 246.214844 C 247.675781 246.589844 250.335938 246.78125 252.992188 246.8125 C 252.992188 271.171875 252.285156 293.738281 250.835938 315.546875 Z M 279.101562 229.042969 C 266.449219 237.351562 249.5625 238.785156 235.023438 232.773438 C 231.308594 231.230469 227.121094 231.359375 223.535156 233.121094 C 220.386719 234.664062 217.175781 236.410156 213.777344 238.25 C 210.128906 240.234375 206.335938 242.292969 202.351562 244.246094 C 201.316406 244.75 199.992188 244.417969 199.394531 243.773438 C 198.96875 243.316406 199.097656 242.515625 199.742188 241.414062 C 201.015625 239.257812 203.832031 235.921875 206.570312 232.679688 C 208.082031 230.886719 209.640625 229.027344 211.039062 227.28125 C 214.25 223.222656 214.785156 217.621094 212.410156 212.648438 C 208.394531 204.242188 206.917969 198.957031 206.507812 191.75 C 205.515625 173.855469 212.644531 159.238281 226.585938 150.582031 C 241.632812 141.25 261.820312 140.746094 276.820312 149.339844 C 290.949219 157.441406 298.519531 172.472656 298.109375 191.652344 C 297.703125 212.519531 287.535156 223.488281 279.101562 229.042969 Z M 283.632812 179.945312 C 280.691406 176.199219 276.285156 174.042969 271.515625 174.042969 L 266.132812 174.042969 C 267.0625 167.828125 265.742188 160.496094 262.625 156.5 C 260.625 153.933594 257.949219 152.738281 255.117188 153.132812 C 247.5 154.183594 246.683594 160.714844 246.414062 162.855469 C 245.691406 168.585938 244.039062 170.503906 242.105469 172.738281 C 240.734375 174.328125 239.253906 176.058594 238.167969 178.828125 C 237.808594 178.765625 237.429688 178.703125 237.035156 178.671875 L 236.46875 178.640625 C 233.8125 178.484375 231.058594 178.324219 226.886719 178.671875 C 223.078125 178.984375 220.183594 181.992188 220.121094 185.644531 C 219.976562 195.257812 220.042969 201.238281 220.121094 207.011719 L 220.152344 210.128906 C 220.183594 213.527344 222.621094 216.125 226.066406 216.4375 C 227.265625 216.550781 229.671875 216.660156 232.109375 216.660156 C 233.96875 216.660156 235.855469 216.597656 237.242188 216.4375 C 238.234375 216.3125 239.238281 215.96875 240.167969 215.433594 C 241.253906 216.078125 242.496094 216.472656 243.851562 216.472656 L 268.980469 216.472656 C 275.890625 216.40625 282.136719 211.292969 283.804688 204.335938 L 286.496094 193.164062 C 287.628906 188.507812 286.574219 183.707031 283.632812 179.945312 Z M 236.628906 207.910156 C 236.628906 207.972656 236.613281 208.019531 236.613281 208.082031 L 236.613281 208.632812 C 236.613281 208.933594 236.597656 209.230469 236.597656 209.515625 C 236.550781 209.53125 236.484375 209.546875 236.453125 209.5625 C 234 209.863281 229.136719 209.734375 227.074219 209.578125 L 227.042969 206.949219 C 226.980469 201.222656 226.902344 195.304688 227.042969 185.800781 C 227.074219 185.738281 227.265625 185.609375 227.484375 185.59375 C 231.183594 185.28125 233.574219 185.421875 236.109375 185.5625 L 236.628906 185.59375 C 236.753906 190.789062 236.785156 200.449219 236.628906 207.910156 Z M 279.792969 191.527344 L 277.101562 202.703125 C 276.15625 206.621094 272.710938 209.5 268.949219 209.546875 L 243.851562 209.546875 C 243.660156 209.546875 243.503906 209.390625 243.503906 209.199219 L 243.503906 208.761719 C 243.675781 202.007812 243.660156 193.210938 243.550781 187.484375 C 243.550781 187.421875 243.582031 187.359375 243.582031 187.28125 C 243.820312 181.332031 245.28125 179.632812 247.328125 177.269531 C 249.53125 174.707031 252.285156 171.527344 253.261719 163.722656 C 253.65625 160.652344 254.410156 160.226562 256.0625 159.992188 C 256.359375 159.945312 256.753906 160.210938 257.179688 160.777344 C 259.148438 163.296875 260.199219 169.589844 259.066406 174.328125 C 257.824219 174.847656 256.960938 176.089844 256.960938 177.523438 C 256.960938 179.441406 258.5 180.984375 260.40625 180.984375 L 271.515625 180.984375 C 274.144531 180.984375 276.582031 182.164062 278.203125 184.242188 C 279.839844 186.304688 280.40625 188.964844 279.792969 191.527344 Z M 279.792969 191.527344 " fill-opacity="1" fill-rule="nonzero"/></svg>